<mxfile host="app.diagrams.net" agent="Mozilla/5.0 (Windows NT 10.0; Win64; x64) AppleWebKit/537.36 (KHTML, like Gecko) Chrome/134.0.0.0 Safari/537.36" version="26.2.4">
  <diagram name="Page-1" id="dVvLlBjHURGHtFSQSKVM">
    <mxGraphModel dx="2530" dy="4174" grid="1" gridSize="10" guides="1" tooltips="1" connect="1" arrows="1" fold="1" page="1" pageScale="1" pageWidth="850" pageHeight="1100" math="0" shadow="0">
      <root>
        <mxCell id="0" />
        <mxCell id="1" parent="0" />
        <mxCell id="_eKx4rbABndpUtFcjEDk-1" value="" style="edgeStyle=orthogonalEdgeStyle;rounded=0;orthogonalLoop=1;jettySize=auto;html=1;" edge="1" parent="1" source="_eKx4rbABndpUtFcjEDk-2" target="_eKx4rbABndpUtFcjEDk-4">
          <mxGeometry relative="1" as="geometry" />
        </mxCell>
        <mxCell id="_eKx4rbABndpUtFcjEDk-2" value="Início" style="strokeWidth=2;html=1;shape=mxgraph.flowchart.terminator;whiteSpace=wrap;" vertex="1" parent="1">
          <mxGeometry x="-290" y="-3150" width="90" height="60" as="geometry" />
        </mxCell>
        <mxCell id="_eKx4rbABndpUtFcjEDk-3" value="" style="edgeStyle=orthogonalEdgeStyle;rounded=0;orthogonalLoop=1;jettySize=auto;html=1;" edge="1" parent="1" source="_eKx4rbABndpUtFcjEDk-4" target="_eKx4rbABndpUtFcjEDk-6">
          <mxGeometry relative="1" as="geometry" />
        </mxCell>
        <mxCell id="_eKx4rbABndpUtFcjEDk-4" value="cotDol" style="shape=manualInput;whiteSpace=wrap;html=1;" vertex="1" parent="1">
          <mxGeometry x="-302.5" y="-3060" width="115" height="80" as="geometry" />
        </mxCell>
        <mxCell id="_eKx4rbABndpUtFcjEDk-5" value="" style="edgeStyle=orthogonalEdgeStyle;rounded=0;orthogonalLoop=1;jettySize=auto;html=1;" edge="1" parent="1" source="_eKx4rbABndpUtFcjEDk-6" target="_eKx4rbABndpUtFcjEDk-8">
          <mxGeometry relative="1" as="geometry" />
        </mxCell>
        <mxCell id="_eKx4rbABndpUtFcjEDk-6" value="reais" style="shape=manualInput;whiteSpace=wrap;html=1;" vertex="1" parent="1">
          <mxGeometry x="-285" y="-2950" width="80" height="80" as="geometry" />
        </mxCell>
        <mxCell id="_eKx4rbABndpUtFcjEDk-7" value="" style="edgeStyle=orthogonalEdgeStyle;rounded=0;orthogonalLoop=1;jettySize=auto;html=1;" edge="1" parent="1" source="_eKx4rbABndpUtFcjEDk-8" target="_eKx4rbABndpUtFcjEDk-10">
          <mxGeometry relative="1" as="geometry" />
        </mxCell>
        <mxCell id="_eKx4rbABndpUtFcjEDk-8" value="dol &amp;lt;- reais / cotDol" style="rounded=1;whiteSpace=wrap;html=1;absoluteArcSize=1;arcSize=14;strokeWidth=2;" vertex="1" parent="1">
          <mxGeometry x="-320" y="-2840" width="150" height="70" as="geometry" />
        </mxCell>
        <mxCell id="_eKx4rbABndpUtFcjEDk-9" value="" style="edgeStyle=orthogonalEdgeStyle;rounded=0;orthogonalLoop=1;jettySize=auto;html=1;" edge="1" parent="1" source="_eKx4rbABndpUtFcjEDk-10" target="_eKx4rbABndpUtFcjEDk-11">
          <mxGeometry relative="1" as="geometry" />
        </mxCell>
        <mxCell id="_eKx4rbABndpUtFcjEDk-10" value="reais" style="shape=display;whiteSpace=wrap;html=1;" vertex="1" parent="1">
          <mxGeometry x="-285" y="-2730" width="80" height="40" as="geometry" />
        </mxCell>
        <mxCell id="_eKx4rbABndpUtFcjEDk-11" value="Fim" style="strokeWidth=2;html=1;shape=mxgraph.flowchart.terminator;whiteSpace=wrap;" vertex="1" parent="1">
          <mxGeometry x="-290" y="-2660" width="90" height="60" as="geometry" />
        </mxCell>
        <mxCell id="_eKx4rbABndpUtFcjEDk-12" value="&lt;span style=&quot;font-family: -apple-system, BlinkMacSystemFont, &amp;quot;Segoe UI&amp;quot;, system-ui, &amp;quot;Apple Color Emoji&amp;quot;, &amp;quot;Segoe UI Emoji&amp;quot;, sans-serif; text-align: left;&quot;&gt;2 - Desenvolva um algoritmo para fazer a cotação do dólar. Ele deverá receber um valor em real e fazer conversão para dólar atual, ou seja, receber a quantidade em reais para calcular a conversão para dólar e mostrar o resultado. Precisa ser feito em pseudocódigo e diagrama de blocos.&lt;/span&gt;" style="text;html=1;align=center;verticalAlign=middle;whiteSpace=wrap;rounded=0;fontColor=default;fontSize=20;" vertex="1" parent="1">
          <mxGeometry x="-770" y="-3240" width="310" height="310" as="geometry" />
        </mxCell>
      </root>
    </mxGraphModel>
  </diagram>
</mxfile>
